<?xml version="1.0" encoding="utf-8"?>
<!-- Generator: Adobe Illustrator 21.0.0, SVG Export Plug-In . SVG Version: 6.00 Build 0)  -->
<svg version="1.1" id="Calque_1" xmlns="http://www.w3.org/2000/svg" xmlns:xlink="http://www.w3.org/1999/xlink" x="0px" y="0px"
	 width="37.4px" height="38.1px" viewBox="0 0 37.4 38.1" enable-background="new 0 0 37.4 38.1" xml:space="preserve">
<path d="M34.7,8.2h-32C1.2,8.2,0,7,0,5.6l0-2.9C0,1.2,1.2,0,2.7,0l32,0c1.5,0,2.7,1.2,2.7,2.7v2.9C37.4,7,36.2,8.2,34.7,8.2z"/>
<path d="M34.7,23h-32C1.2,23,0,21.8,0,20.4l0-2.9c0-1.5,1.2-2.7,2.7-2.7h32c1.5,0,2.7,1.2,2.7,2.7v2.9C37.4,21.8,36.2,23,34.7,23z"
	/>
<path d="M34.7,38.1h-32c-1.5,0-2.7-1.2-2.7-2.7l0-2.9c0-1.5,1.2-2.7,2.7-2.7h32c1.5,0,2.7,1.2,2.7,2.7v2.9
	C37.4,36.9,36.2,38.1,34.7,38.1z"/>
</svg>
