<?xml version="1.0" encoding="utf-8"?>
<!-- Generator: Adobe Illustrator 21.0.0, SVG Export Plug-In . SVG Version: 6.00 Build 0)  -->
<svg version="1.1" id="Calque_1" xmlns="http://www.w3.org/2000/svg" xmlns:xlink="http://www.w3.org/1999/xlink" x="0px" y="0px"
	 width="39.3px" height="37.5px" viewBox="0 0 39.3 37.5" enable-background="new 0 0 39.3 37.5" xml:space="preserve">
<g>
	<path d="M38.2,8.2l-1.5-0.5c-0.8-0.3-1.7,0.2-2,1l-4.9,14.2H16.3L11.6,1.5c0,0,0,0,0-0.1l0,0l-0.2-0.7l0,0C11.3,0.3,10.9,0,10.4,0
		H1.1C0.5,0,0,0.5,0,1.1v2.5c0,0.6,0.5,1.1,1.1,1.1h6.3l4.7,21.5c0.1,0.3,0.2,0.5,0.3,0.7c0.3,0.4,0.8,0.7,1.3,0.7h0
		c0.1,0,0.1,0,0.2,0h17.8c0,0,0.1,0,0.1,0c0.7,0.1,1.4-0.4,1.6-1.1l5.6-16.4C39.5,9.4,39.1,8.5,38.2,8.2z"/>
	<circle cx="21.3" cy="9.7" r="1.3"/>
	<circle cx="16.5" cy="9.7" r="1.3"/>
	<circle cx="26.2" cy="9.7" r="1.3"/>
	<circle cx="31.1" cy="9.7" r="1.3"/>
	<circle cx="18" cy="14.7" r="1.3"/>
	<circle cx="23" cy="14.7" r="1.3"/>
	<circle cx="27.8" cy="14.7" r="1.3"/>
	<circle cx="20.6" cy="19.6" r="1.3"/>
	<circle cx="25.6" cy="19.6" r="1.3"/>
	<circle cx="15.7" cy="33.6" r="3.9"/>
	<circle cx="30.4" cy="33.6" r="3.9"/>
</g>
</svg>
